<svg width="1382" height="170" viewBox="0 0 1382 170" fill="none" xmlns="http://www.w3.org/2000/svg">
<path d="M79.9161 5.0687C118.165 5.0687 145.125 29.0327 149.044 64.058H114.479C110.563 46.0847 97.4281 34.3327 78.0721 34.3327C51.8041 34.3327 36.1348 55.9927 36.1348 87.1007C36.1348 117.978 51.8041 139.869 78.0721 139.869C97.4281 139.869 110.563 128.117 114.479 110.143H149.044C145.125 145.169 118.165 169.133 79.9161 169.133C31.0655 169.133 0.880127 136.642 0.880127 87.1007C0.880127 37.5594 31.0655 5.0687 79.9161 5.0687Z" fill="white"/>
<path d="M245.826 108.53C245.826 88.4836 234.535 74.4276 216.331 74.4276C198.128 74.4276 187.068 88.4836 187.068 108.53C187.068 128.577 198.128 142.634 216.331 142.634C234.535 142.634 245.826 128.577 245.826 108.53ZM153.886 108.53C153.886 72.1223 178.543 47.9276 216.331 47.9276C254.122 47.9276 278.778 72.1223 278.778 108.53C278.778 145.169 254.122 169.133 216.331 169.133C178.543 169.133 153.886 144.938 153.886 108.53Z" fill="white"/>
<path d="M301.595 49.3102L330.167 134.569L358.279 49.3102H392.383L349.753 167.75H309.429L266.8 49.3102H301.595Z" fill="white"/>
<path d="M431.094 167.749H398.604V49.3093H431.094V167.749ZM433.629 18.2026C433.629 28.8026 425.565 36.6373 414.964 36.6373C404.134 36.6373 396.069 28.8026 396.069 18.2026C396.069 7.60394 404.134 -3.05176e-05 414.964 -3.05176e-05C425.565 -3.05176e-05 433.629 7.60394 433.629 18.2026Z" fill="white"/>
<path d="M527.308 108.761C527.308 88.4834 516.249 74.4274 498.505 74.4274C480.761 74.4274 469.472 88.2527 469.472 108.53C469.472 128.807 480.761 142.634 498.505 142.634C516.249 142.634 527.308 128.807 527.308 108.761ZM559.337 6.45139V167.75H530.996L527.769 151.39C519.935 161.529 508.415 169.133 491.361 169.133C459.563 169.363 436.291 145.859 436.291 108.299C436.291 71.662 459.563 47.9274 491.132 47.9274C507.492 47.9274 519.243 54.3807 526.848 64.0581V6.45139H559.337Z" fill="white"/>
<path d="M673.237 104.615L651.808 43.3214L630.608 104.615H673.237ZM632.221 6.45207H673.698L732.226 167.752H695.128L682.685 132.496H621.392L608.948 167.752H573.232L632.221 6.45207Z" fill="#00D474"/>
<path d="M781.545 169.134C744.216 169.134 720.481 144.939 720.481 108.532C720.481 71.6631 744.445 47.9298 781.774 47.9298C813.804 47.9298 834.312 65.4418 838.921 93.5538H805.278C802.513 82.0338 793.986 74.4298 781.545 74.4298C764.492 74.4298 753.662 88.2538 753.662 108.532C753.662 128.579 764.492 142.635 781.545 142.635C794.448 142.635 802.973 135.031 805.509 122.818H838.921C834.542 151.391 813.804 169.134 781.545 169.134Z" fill="#00D474"/>
<path d="M856.845 76.7327H837.259V49.3127H856.845V16.13H889.335V49.3127H916.295V76.7327H889.335V128.579C889.335 136.874 892.561 140.331 900.855 140.331H917.677V167.751H890.717C868.135 167.751 856.845 156.461 856.845 133.878V76.7327Z" fill="#00D474"/>
<path d="M938.415 6.4528H969.753L1038.19 108.07V6.4528H1072.29V167.751H1040.72L972.288 66.1328V167.751H938.415V6.4528Z" fill="#00D474"/>
<path d="M1170.69 108.532C1170.69 88.4842 1159.4 74.4296 1141.19 74.4296C1122.99 74.4296 1111.93 88.4842 1111.93 108.532C1111.93 128.579 1122.99 142.635 1141.19 142.635C1159.4 142.635 1170.69 128.579 1170.69 108.532ZM1078.75 108.532C1078.75 72.1242 1103.4 47.9296 1141.19 47.9296C1178.98 47.9296 1203.64 72.1242 1203.64 108.532C1203.64 145.17 1178.98 169.134 1141.19 169.134C1103.4 169.134 1078.75 144.939 1078.75 108.532Z" fill="#00D474"/>
<path d="M1227.37 49.3122L1251.11 132.727L1273.46 49.3122H1302.72L1324.38 132.958L1348.58 49.3122H1381.76L1342.82 167.752H1308.25L1287.51 96.3189L1266.32 167.752H1231.75L1193.04 49.3122H1227.37Z" fill="#00D474"/>
</svg>
