<svg width="220" height="70" viewBox="0 0 220 70" fill="none" xmlns="http://www.w3.org/2000/svg">
<path d="M95.0752 18.3125C94.0498 18.3125 93.2559 18.6992 92.6934 19.4727C92.1309 20.2403 91.8496 21.3125 91.8496 22.6895C91.8496 25.5547 92.9248 26.9873 95.0752 26.9873C95.9775 26.9873 97.0703 26.7617 98.3535 26.3106V28.5957C97.2988 29.0352 96.1211 29.2549 94.8203 29.2549C92.9512 29.2549 91.5215 28.6895 90.5312 27.5586C89.541 26.4219 89.0459 24.793 89.0459 22.6719C89.0459 21.336 89.2891 20.167 89.7754 19.1651C90.2617 18.1573 90.959 17.3867 91.8672 16.8535C92.7812 16.3145 93.8506 16.045 95.0752 16.045C96.3232 16.045 97.5771 16.3467 98.8369 16.9502L97.958 19.1651C97.4775 18.9366 96.9941 18.7373 96.5078 18.5674C96.0215 18.3975 95.5439 18.3125 95.0752 18.3125ZM112.759 22.6367C112.759 24.7637 112.231 26.3985 111.177 27.541C110.122 28.6836 108.61 29.2549 106.642 29.2549C104.673 29.2549 103.161 28.6836 102.106 27.541C101.052 26.3985 100.524 24.7578 100.524 22.6192C100.524 20.4805 101.052 18.8487 102.106 17.7237C103.167 16.5928 104.685 16.0274 106.659 16.0274C108.634 16.0274 110.143 16.5957 111.186 17.7325C112.234 18.8692 112.759 20.5039 112.759 22.6367ZM103.381 22.6367C103.381 24.0723 103.653 25.1534 104.198 25.8799C104.743 26.6065 105.558 26.9698 106.642 26.9698C108.815 26.9698 109.902 25.5254 109.902 22.6367C109.902 19.7422 108.821 18.295 106.659 18.295C105.575 18.295 104.758 18.6612 104.207 19.3936C103.656 20.1201 103.381 21.2012 103.381 22.6367ZM122.752 16.2295H125.503L121.135 29.0791H118.164L113.805 16.2295H116.556L118.973 23.876C119.107 24.3272 119.245 24.8545 119.386 25.458C119.532 26.0557 119.623 26.4717 119.658 26.7061C119.723 26.167 119.942 25.2237 120.317 23.876L122.752 16.2295ZM127.129 29.0791V16.2295H129.854V29.0791H127.129ZM143.749 22.5313C143.749 24.6465 143.146 26.2666 141.938 27.3916C140.737 28.5166 139 29.0791 136.727 29.0791H133.088V16.2295H137.122C139.22 16.2295 140.849 16.7832 142.009 17.8907C143.169 18.9981 143.749 20.545 143.749 22.5313ZM140.919 22.6016C140.919 19.8418 139.7 18.4619 137.263 18.4619H135.812V26.8291H136.981C139.606 26.8291 140.919 25.42 140.919 22.6016ZM95.0752 43.3125C94.0498 43.3125 93.2559 43.6992 92.6934 44.4727C92.1309 45.2403 91.8496 46.3125 91.8496 47.6895C91.8496 50.5547 92.9248 51.9873 95.0752 51.9873C95.9775 51.9873 97.0703 51.7617 98.3535 51.3106V53.5957C97.2988 54.0352 96.1211 54.2549 94.8203 54.2549C92.9512 54.2549 91.5215 53.6895 90.5312 52.5586C89.541 51.4219 89.0459 49.793 89.0459 47.6719C89.0459 46.336 89.2891 45.167 89.7754 44.1651C90.2617 43.1573 90.959 42.3867 91.8672 41.8535C92.7812 41.3145 93.8506 41.045 95.0752 41.045C96.3232 41.045 97.5771 41.3467 98.8369 41.9502L97.958 44.1651C97.4775 43.9366 96.9941 43.7373 96.5078 43.5674C96.0215 43.3975 95.5439 43.3125 95.0752 43.3125ZM112.759 47.6367C112.759 49.7637 112.231 51.3985 111.177 52.541C110.122 53.6836 108.61 54.2549 106.642 54.2549C104.673 54.2549 103.161 53.6836 102.106 52.541C101.052 51.3985 100.524 49.7578 100.524 47.6192C100.524 45.4805 101.052 43.8487 102.106 42.7237C103.167 41.5928 104.685 41.0274 106.659 41.0274C108.634 41.0274 110.143 41.5957 111.186 42.7325C112.234 43.8692 112.759 45.5039 112.759 47.6367ZM103.381 47.6367C103.381 49.0723 103.653 50.1534 104.198 50.8799C104.743 51.6065 105.558 51.9698 106.642 51.9698C108.815 51.9698 109.902 50.5254 109.902 47.6367C109.902 44.7422 108.821 43.295 106.659 43.295C105.575 43.295 104.758 43.6612 104.207 44.3936C103.656 45.1201 103.381 46.2012 103.381 47.6367ZM125.881 41.2295V49.544C125.881 50.4932 125.667 51.3252 125.239 52.0401C124.817 52.7549 124.205 53.3028 123.402 53.6836C122.6 54.0645 121.65 54.2549 120.555 54.2549C118.902 54.2549 117.619 53.833 116.705 52.9893C115.791 52.1397 115.334 50.9795 115.334 49.5088V41.2295H118.05V49.0957C118.05 50.086 118.249 50.8125 118.647 51.2754C119.046 51.7383 119.705 51.9698 120.625 51.9698C121.516 51.9698 122.16 51.7383 122.559 51.2754C122.963 50.8067 123.165 50.0742 123.165 49.0782V41.2295H125.881ZM140.427 54.0791H136.964L131.374 44.3584H131.295C131.406 46.0752 131.462 47.2998 131.462 48.0323V54.0791H129.027V41.2295H132.464L138.045 50.8535H138.106C138.019 49.1836 137.975 48.003 137.975 47.3116V41.2295H140.427V54.0791ZM148.627 54.0791H145.902V43.4971H142.413V41.2295H152.116V43.4971H148.627V54.0791ZM158.093 46.5205L160.773 41.2295H163.709L159.446 49.0782V54.0791H156.739V49.166L152.477 41.2295H155.43L158.093 46.5205ZM180.663 47.5313C180.663 49.6465 180.06 51.2666 178.853 52.3916C177.651 53.5166 175.914 54.0791 173.641 54.0791H170.002V41.2295H174.036C176.134 41.2295 177.763 41.7832 178.923 42.8907C180.083 43.9981 180.663 45.545 180.663 47.5313ZM177.833 47.6016C177.833 44.8418 176.614 43.4619 174.177 43.4619H172.727V51.8291H173.896C176.521 51.8291 177.833 50.42 177.833 47.6016ZM191.192 54.0791L190.261 51.0205H185.576L184.645 54.0791H181.709L186.244 41.1768H189.575L194.128 54.0791H191.192ZM189.61 48.7354C188.749 45.9639 188.263 44.3965 188.151 44.0332C188.046 43.67 187.97 43.3828 187.923 43.1719C187.729 43.9219 187.176 45.7764 186.262 48.7354H189.61ZM200.711 54.0791H197.986V43.4971H194.497V41.2295H204.2V43.4971H200.711V54.0791ZM214.044 54.0791L213.112 51.0205H208.428L207.496 54.0791H204.561L209.096 41.1768H212.427L216.979 54.0791H214.044ZM212.462 48.7354C211.601 45.9639 211.114 44.3965 211.003 44.0332C210.897 43.67 210.821 43.3828 210.774 43.1719C210.581 43.9219 210.027 45.7764 209.113 48.7354H212.462Z" fill="black"/>
<rect y="66.1111" width="80" height="3.88889" fill="black"/>
<rect x="3.73834" y="61.7647" width="72.5234" height="4.3464" fill="black"/>
<rect x="7.72583" y="57.4183" width="64.7975" height="4.34641" fill="black"/>
<path d="M13.458 24.3627H20.0623L21.0592 56.3889H12.5857L13.458 24.3627Z" fill="black"/>
<path d="M29.0343 24.4771H35.6386L36.6355 56.5032H28.162L29.0343 24.4771Z" fill="black"/>
<path d="M44.7352 24.4771H51.3395L52.3364 56.5032H43.8629L44.7352 24.4771Z" fill="black"/>
<path d="M60.4362 24.4771H67.0405L68.0374 56.5032H59.5639L60.4362 24.4771Z" fill="black"/>
<rect x="10.9658" y="18.9869" width="58.0685" height="4.34641" fill="black"/>
<path d="M4.23676 15.3268L39.3769 0H41.7445L75.8878 15.4412V17.9575H4.23676V15.3268Z" fill="black"/>
</svg>
