<?xml version="1.0" encoding="UTF-8"?>
<svg width="94px" height="50px" viewBox="0 0 94 50" version="1.1" xmlns="http://www.w3.org/2000/svg" xmlns:xlink="http://www.w3.org/1999/xlink">
    <!-- Generator: Sketch 64 (93537) - https://sketch.com -->
    <title>fl-covid-response</title>
    <desc>Created with Sketch.</desc>
    <defs>
        <polygon id="path-1" points="0 49.1869919 93.6996883 49.1869919 93.6996883 0.164634146 0 0.164634146"></polygon>
    </defs>
    <g id="Mockups" stroke="none" stroke-width="1" fill="none" fill-rule="evenodd">
        <g id="FL-COVID-Logotype" transform="translate(-183.000000, -141.000000)">
            <g id="fl-covid-response" transform="translate(183.000000, 141.000000)">
                <polygon id="Fill-1" fill="#F6891F" points="0.780484848 0.655121951 12.30871 0.655121951 12.30871 4.07260163 5.36288312 4.07260163 5.36288312 6.51691057 11.3345281 6.51691057 11.3345281 9.78926829 5.36288312 9.78926829 5.36288312 14.9055285 0.780484848 14.9055285"></polygon>
                <polygon id="Fill-2" fill="#F6891F" points="13.6769593 0.655121951 18.2593576 0.655121951 18.2593576 11.26 25.5783359 11.26 25.5783359 14.9055285 13.6769593 14.9055285"></polygon>
                <g id="Group-27" transform="translate(0.000000, 0.241870)">
                    <path d="M31.0726563,4.47292683 C30.5611498,5.06682927 30.3056,5.86764228 30.3056,6.87577236 L30.3056,8.20097561 C30.3056,9.20910569 30.5611498,10.0103252 31.0726563,10.6038211 C31.5837558,11.1977236 32.3304658,11.4944715 33.3119723,11.4944715 C34.2930719,11.4944715 35.0434442,11.1977236 35.5614615,10.6038211 C36.0798857,10.0103252 36.3390978,9.20910569 36.3390978,8.20097561 L36.3390978,6.87577236 C36.3390978,5.86764228 36.0798857,5.06682927 35.5614615,4.47292683 C35.0434442,3.87943089 34.2930719,3.58227642 33.3119723,3.58227642 C32.3304658,3.58227642 31.5837558,3.87943089 31.0726563,4.47292683 M39.014232,2.0497561 C40.3546476,3.30626016 41.0248554,5.13552846 41.0248554,7.53837398 C41.0248554,9.94121951 40.3546476,11.7708943 39.014232,13.0269919 C37.6730026,14.2839024 35.7722494,14.9119512 33.3119723,14.9119512 C30.8516952,14.9119512 28.9546043,14.287561 27.6206996,13.037561 C26.2863879,11.7879675 25.6198424,9.95504065 25.6198424,7.53837398 C25.6198424,5.12211382 26.2863879,3.28918699 27.6206996,2.03918699 C28.9546043,0.789593496 30.8516952,0.164796748 33.3119723,0.164796748 C35.7722494,0.164796748 37.6730026,0.793252033 39.014232,2.0497561" id="Fill-3" fill="#F6891F"></path>
                    <path d="M51.0601082,4.03804878 C50.8114762,3.78926829 50.5075022,3.66528455 50.1481861,3.66528455 L47.1414069,3.66528455 L47.1414069,6.29577236 L50.1481861,6.29577236 C50.5075022,6.29577236 50.8114762,6.16813008 51.0601082,5.91243902 C51.3087403,5.65715447 51.4332597,5.34292683 51.4332597,4.9697561 C51.4332597,4.59699187 51.3087403,4.28642276 51.0601082,4.03804878 M55.3934675,7.14495935 C54.9234675,7.84902439 54.2390173,8.36691057 53.3405238,8.69821138 L56.513329,14.6636585 L51.3714069,14.6636585 L48.8415455,9.46487805 L47.1414069,9.46487805 L47.1414069,14.6636585 L42.5590087,14.6636585 L42.5590087,0.413252033 L51.2883939,0.413252033 C52.311,0.413252033 53.1854848,0.61 53.9114416,1.00349593 C54.6369913,1.39699187 55.1826797,1.92910569 55.5489134,2.59821138 C55.9151472,3.26813008 56.098671,3.99658537 56.098671,4.78357724 C56.098671,5.65349593 55.8634675,6.4404878 55.3934675,7.14495935" id="Fill-5" fill="#F6891F"></path>
                    <mask id="mask-2" fill="white">
                        <use xlink:href="#path-1"></use>
                    </mask>
                    <g id="Clip-8"></g>
                    <polygon id="Fill-7" fill="#F6891F" mask="url(#mask-2)" points="57.964632 14.6638211 62.5466234 14.6638211 62.5466234 0.413414634 57.964632 0.413414634"></polygon>
                    <path d="M69.4719411,11.245935 L70.9857074,11.245935 C72.9064,11.245935 73.8675602,10.2174797 73.8675602,8.1597561 L73.8675602,6.91707317 C73.8675602,4.8597561 72.9064,3.83089431 70.9857074,3.83089431 L69.4719411,3.83089431 L69.4719411,11.245935 Z M78.5533177,7.53821138 C78.5533177,12.2886179 76.0584519,14.6634146 71.0683134,14.6634146 L64.8895429,14.6634146 L64.8895429,0.413414634 L71.0683134,0.413414634 C76.0584519,0.413414634 78.5533177,2.78821138 78.5533177,7.53821138 L78.5533177,7.53821138 Z" id="Fill-9" fill="#F6891F" mask="url(#mask-2)"></path>
                    <path d="M84.1101827,9.46471545 L87.1999749,9.46471545 L85.706555,4.3903252 L85.6239489,4.3903252 L84.1101827,9.46471545 Z M88.7544338,14.6634959 L88.1538104,12.6545528 L83.1563472,12.6545528 L82.5553169,14.6634959 L77.8691524,14.6634959 L83.0733342,0.413089431 L88.4024424,0.413089431 L93.6066242,14.6634959 L88.7544338,14.6634959 Z" id="Fill-10" fill="#F6891F" mask="url(#mask-2)"></path>
                    <path d="M11.9192814,20.8464228 C13.099368,21.8602439 13.6902251,23.3082114 13.6902251,25.1899187 L9.49155844,25.1899187 C9.49155844,24.3947967 9.28280519,23.7655285 8.86489177,23.3013008 C8.44697835,22.8374797 7.85327273,22.6057724 7.08377489,22.6057724 C6.19545455,22.6057724 5.54193074,22.8838211 5.12401732,23.4403252 C4.70569697,23.9968293 4.49735065,24.772439 4.49735065,25.7663415 L4.49735065,27.0382927 C4.49735065,28.019187 4.70569697,28.7907317 5.12401732,29.3541463 C5.54193074,29.9171545 6.18161905,30.1988618 7.04430303,30.1988618 C7.89274459,30.1988618 8.53650216,29.9801626 8.97435498,29.5431707 C9.41180087,29.1053659 9.6311342,28.4895122 9.6311342,27.6943902 L13.6902251,27.6943902 C13.6902251,29.5626829 13.1160519,30.9939837 11.9689264,31.9874797 C10.8213939,32.9817886 9.19938528,33.4785366 7.10371429,33.4785366 C4.76877056,33.4785366 3.00148918,32.8821951 1.80105628,31.6895122 C0.60021645,30.4968293 0,28.7346341 0,26.4021138 C0,24.07 0.60021645,22.3073984 1.80105628,21.1147154 C3.00148918,19.922439 4.76877056,19.3260976 7.10371429,19.3260976 C9.1334632,19.3260976 10.738381,19.8326016 11.9192814,20.8464228" id="Fill-11" fill="#3BBDE8" mask="url(#mask-2)"></path>
                    <path d="M19.8185775,23.4603252 C19.3274173,24.0302439 19.0824476,24.7989431 19.0824476,25.7660163 L19.0824476,27.038374 C19.0824476,28.0058537 19.3274173,28.7745528 19.8185775,29.344065 C20.3089238,29.9139837 21.0259281,30.1989431 21.9675558,30.1989431 C22.9095905,30.1989431 23.6290364,29.9139837 24.1263004,29.344065 C24.6239714,28.7745528 24.8726035,28.0058537 24.8726035,27.038374 L24.8726035,25.7660163 C24.8726035,24.7989431 24.6239714,24.0302439 24.1263004,23.4603252 C23.6290364,22.890813 22.9095905,22.6054472 21.9675558,22.6054472 C21.0259281,22.6054472 20.3089238,22.890813 19.8185775,23.4603252 M27.4399022,21.1347154 C28.7261965,22.340813 29.3695472,24.0965041 29.3695472,26.4021951 C29.3695472,28.7078862 28.7261965,30.4639837 27.4399022,31.6696748 C26.1527939,32.8757724 24.3285429,33.4786179 21.9675558,33.4786179 C19.6065688,33.4786179 17.7855732,32.8790244 16.5053827,31.6794309 C15.2255991,30.4806504 14.5855039,28.7213008 14.5855039,26.4021951 C14.5855039,24.0834959 15.2255991,22.3245528 16.5053827,21.1245528 C17.7855732,19.9257724 19.6065688,19.3261789 21.9675558,19.3261789 C24.3285429,19.3261789 26.1527939,19.9290244 27.4399022,21.1347154" id="Fill-12" fill="#3BBDE8" mask="url(#mask-2)"></path>
                    <polygon id="Fill-13" fill="#3BBDE8" mask="url(#mask-2)" points="33.707342 33.2400407 28.8518961 19.5644309 33.5478268 19.5644309 36.2937662 28.7079268 36.3739307 28.7079268 39.1398095 19.5644309 43.6363463 19.5644309 38.8012468 33.2400407"></polygon>
                    <polygon id="Fill-14" fill="#3BBDE8" mask="url(#mask-2)" points="44.7704502 33.2398374 49.1681039 33.2398374 49.1681039 19.5642276 44.7704502 19.5642276"></polygon>
                    <path d="M55.8137004,29.9602033 L57.2660208,29.9602033 C59.1102113,29.9602033 60.0318996,28.9732114 60.0318996,26.9984146 L60.0318996,25.8057317 C60.0318996,23.8313415 59.1102113,22.8443496 57.2660208,22.8443496 L55.8137004,22.8443496 L55.8137004,29.9602033 Z M64.5288433,26.4024797 C64.5288433,30.9610163 62.1344883,33.239878 57.3457784,33.239878 L51.4164537,33.239878 L51.4164537,19.5642683 L57.3457784,19.5642683 C62.1344883,19.5642683 64.5288433,21.8439431 64.5288433,26.4024797 L64.5288433,26.4024797 Z" id="Fill-15" fill="#3BBDE8" mask="url(#mask-2)"></path>
                    <polygon id="Fill-16" fill="#3BBDE8" mask="url(#mask-2)" points="65.3051775 29.3439024 70.3791429 29.3439024 70.3791429 26.203252 65.3051775 26.203252"></polygon>
                    <path d="M81.2831429,30.1789431 L81.2831429,33.2399187 L70.9561645,33.2399187 L70.9561645,30.1789431 L74.199368,30.1789431 L74.199368,23.9968293 L70.9561645,23.9968293 L70.9561645,21.6915447 C71.8448918,21.6386992 72.8394199,21.4033333 73.9405628,20.9854472 C75.0412987,20.5679675 76.0028658,20.0878862 76.825671,19.5443902 L78.1591688,19.5443902 L78.1591688,30.1789431 L81.2831429,30.1789431 Z" id="Fill-17" fill="#3BBDE8" mask="url(#mask-2)"></path>
                    <path d="M86.3073411,22.5163008 C85.9687784,22.8541057 85.7999039,23.3345935 85.7999039,23.9573577 C85.7999039,24.5805285 85.9655229,25.0606098 86.297168,25.3984146 C86.6284061,25.7362195 87.1061377,25.9053252 87.7299558,25.9053252 C88.3667957,25.9053252 88.8538866,25.7431301 89.1924494,25.4183333 C89.5310121,25.0935366 89.7002935,24.6199593 89.7002935,23.9971951 C89.7002935,23.3744309 89.5310121,22.887439 89.1924494,22.5362195 C88.8538866,22.1854065 88.3728996,22.0093902 87.7498952,22.0093902 C87.1260771,22.0093902 86.645497,22.1780894 86.3073411,22.5163008 M92.2370727,20.9658943 C93.2116615,22.0589837 93.6995662,23.7585772 93.6995662,26.0642683 C93.6995662,28.6748374 93.2185792,30.5634553 92.2570121,31.7297154 C91.2946312,32.8955691 89.7995835,33.4784959 87.7698346,33.4784959 C86.1116095,33.4784959 84.7854364,33.0780894 83.7900944,32.2760569 C82.7951593,31.4744309 82.2974883,30.338252 82.2974883,28.8671138 L85.8397827,28.8671138 L85.8397827,29.0057317 C85.8397827,29.5232114 85.9988909,29.9504472 86.3171074,30.288252 C86.6357307,30.6264634 87.0996268,30.7951626 87.7100165,30.7951626 C88.3334277,30.7951626 88.8213325,30.5797154 89.17251,30.1492276 C89.5236874,29.7183333 89.7002935,29.139065 89.7002935,28.4097967 L89.7002935,27.2569512 C89.3149342,27.6016667 88.857142,27.8602033 88.3269169,28.0321545 C87.7958779,28.2045122 87.292103,28.2906911 86.8143714,28.2906911 C85.8996009,28.2906911 85.0739472,28.1284959 84.3370035,27.8036992 C83.6012805,27.4789024 83.0210035,27.0020732 82.5965792,26.3723984 C82.1713411,25.7431301 81.9593325,24.9845935 81.9593325,24.0963821 C81.9593325,22.585813 82.4801983,21.4130488 83.5215229,20.5780894 C84.5628476,19.7435366 85.9789515,19.3260569 87.7698346,19.3260569 C89.7727264,19.3260569 91.2620771,19.8723984 92.2370727,20.9658943" id="Fill-18" fill="#3BBDE8" mask="url(#mask-2)"></path>
                    <path d="M7.26864156,40.4937805 C7.06965455,40.295 6.82631255,40.195813 6.53942944,40.195813 L4.13612208,40.195813 L4.13612208,42.2986585 L6.53942944,42.2986585 C6.82631255,42.2986585 7.06965455,42.196626 7.26864156,41.992561 C7.46762857,41.7880894 7.56691861,41.5368699 7.56691861,41.2389024 C7.56691861,40.940935 7.46762857,40.692561 7.26864156,40.4937805 M10.7328061,42.9775203 C10.357213,43.5405285 9.80989697,43.9543496 9.09207879,44.2193902 L11.6280442,48.9880894 L7.51686667,48.9880894 L5.49525628,44.8319919 L4.13612208,44.8319919 L4.13612208,48.9880894 L0.472563636,48.9880894 L0.472563636,37.5962195 L7.45094459,37.5962195 C8.26886667,37.5962195 8.96755931,37.7531301 9.54783636,38.0677642 C10.1277065,38.3823984 10.5643385,38.8076016 10.8573255,39.3429675 C11.1499056,39.8783333 11.2963991,40.4604472 11.2963991,41.0897154 C11.2963991,41.7852439 11.1088061,42.4145122 10.7328061,42.9775203" id="Fill-19" fill="#3BBDE8" mask="url(#mask-2)"></path>
                    <polygon id="Fill-20" fill="#3BBDE8" mask="url(#mask-2)" points="12.6226537 37.5960569 22.4849221 37.5960569 22.4849221 40.3281707 16.2858052 40.3281707 16.2858052 41.9013415 21.5900909 41.9013415 21.5900909 44.5176016 16.2858052 44.5176016 16.2858052 46.2562195 22.6008961 46.2562195 22.6008961 48.9883333 12.6226537 48.9883333"></polygon>
                    <path d="M32.2314199,38.283252 C33.171013,38.8739024 33.6511861,39.7486992 33.6735671,40.9076423 L33.6735671,41.1064228 L30.2423636,41.1064228 L30.2423636,41.0401626 C30.2423636,40.7088618 30.1206926,40.433252 29.8777576,40.2125203 C29.6348225,39.9917886 29.2645195,39.8812195 28.7668485,39.8812195 C28.2805714,39.8812195 27.9078268,39.9527642 27.6482078,40.0962602 C27.3889957,40.2397561 27.2587792,40.4165854 27.2587792,40.6263415 C27.2587792,40.9243089 27.4357922,41.1454472 27.7894113,41.2885366 C28.1426234,41.432439 28.7119134,41.5812195 29.4964675,41.7356911 C30.4136797,41.9234959 31.1681212,42.1194309 31.7593853,42.3234959 C32.3502424,42.5279675 32.867039,42.8617073 33.308961,43.325122 C33.7508831,43.7889431 33.9775411,44.4182114 33.9885281,45.2129268 C33.9885281,46.5596748 33.5323636,47.5588618 32.6208485,48.2100813 C31.7093333,48.8613008 30.4909957,49.1869106 28.9662424,49.1869106 C27.1871602,49.1869106 25.8023896,48.8889431 24.8135584,48.2930081 C23.8251342,47.6966667 23.3303117,46.6426016 23.3303117,45.13 L26.7948831,45.13 C26.7948831,45.7043902 26.9438182,46.0881301 27.2420952,46.280813 C27.5407792,46.4743089 28.0046753,46.5706504 28.6345974,46.5706504 C29.0989004,46.5706504 29.4822251,46.5210569 29.7866061,46.4218699 C30.0901732,46.3222764 30.2423636,46.1182114 30.2423636,45.8092683 C30.2423636,45.533252 30.0734892,45.3263415 29.7365541,45.1881301 C29.399619,45.0503252 28.8498615,44.9039837 28.0872814,44.7495122 C27.1590823,44.5507317 26.3912121,44.3438211 25.7832641,44.128374 C25.1757229,43.9133333 24.6450909,43.5572358 24.1921818,43.0600813 C23.7392727,42.5637398 23.5126147,41.8905691 23.5126147,41.0401626 C23.5126147,39.7930081 23.9960433,38.8739024 24.9633074,38.283252 C25.9297576,37.6926016 27.1533853,37.3974797 28.6345974,37.3974797 C30.0934286,37.3974797 31.2918268,37.6926016 32.2314199,38.283252" id="Fill-21" fill="#3BBDE8" mask="url(#mask-2)"></path>
                    <path d="M38.7287325,42.6464228 L40.2372087,42.6464228 C40.6241957,42.6464228 40.9139273,42.5468293 41.1076242,42.3484553 C41.3005074,42.1496748 41.3977628,41.8793496 41.3977628,41.5370732 L41.3977628,41.4045528 C41.3977628,41.0513008 41.3005074,40.7781301 41.1076242,40.5850407 C40.9139273,40.3919512 40.6241957,40.2952033 40.2372087,40.2952033 L38.7287325,40.2952033 L38.7287325,42.6464228 Z M43.3534511,38.0846341 C43.9060571,38.4102439 44.3365853,38.8573984 44.6466632,39.4256911 C44.9559273,39.9943902 45.1109662,40.6317886 45.1109662,41.3382927 L45.1109662,41.5537398 C45.1109662,42.2602439 44.9559273,42.9004878 44.6466632,43.4744715 C44.3365853,44.0484553 43.9060571,44.4984553 43.3534511,44.8236585 C42.800845,45.1496748 42.1709229,45.3122764 41.4640918,45.3122764 L38.7287325,45.3122764 L38.7287325,48.9882927 L35.065581,48.9882927 L35.065581,37.5960163 L41.4640918,37.5960163 C42.1709229,37.5960163 42.800845,37.7590244 43.3534511,38.0846341 L43.3534511,38.0846341 Z" id="Fill-22" fill="#3BBDE8" mask="url(#mask-2)"></path>
                    <path d="M50.1660095,40.8415447 C49.7570485,41.3163415 49.5527714,41.9565854 49.5527714,42.7622764 L49.5527714,43.8220325 C49.5527714,44.6277236 49.7570485,45.268374 50.1660095,45.7427642 C50.5749706,46.217561 51.1719316,46.4549593 51.9560788,46.4549593 C52.7406329,46.4549593 53.3404424,46.217561 53.7546935,45.7427642 C54.1689446,45.268374 54.3764771,44.6277236 54.3764771,43.8220325 L54.3764771,42.7622764 C54.3764771,41.9565854 54.1689446,41.3163415 53.7546935,40.8415447 C53.3404424,40.3671545 52.7406329,40.1293496 51.9560788,40.1293496 C51.1719316,40.1293496 50.5749706,40.3671545 50.1660095,40.8415447 M56.5148753,38.9041463 C57.5863126,39.9090244 58.1226416,41.3712195 58.1226416,43.2919512 C58.1226416,45.2126829 57.5863126,46.6756911 56.5148753,47.6801626 C55.4426242,48.6846341 53.923161,49.1870732 51.9560788,49.1870732 C49.9889965,49.1870732 48.4727887,48.6874797 47.4062346,47.6882927 C46.3396805,46.6895122 45.8066069,45.224065 45.8066069,43.2919512 C45.8066069,41.3602439 46.3396805,39.8947967 47.4062346,38.8956098 C48.4727887,37.8968293 49.9889965,37.3972358 51.9560788,37.3972358 C53.923161,37.3972358 55.4426242,37.8996748 56.5148753,38.9041463" id="Fill-23" fill="#3BBDE8" mask="url(#mask-2)"></path>
                    <polygon id="Fill-24" fill="#3BBDE8" mask="url(#mask-2)" points="67.5044926 48.9882927 62.7137481 43.4578049 62.7137481 48.9882927 59.3488736 48.9882927 59.3488736 37.5960163 62.548129 37.5960163 67.3384667 43.2094309 67.3384667 37.5960163 70.7033411 37.5960163 70.7033411 48.9882927"></polygon>
                    <path d="M80.7979238,38.283252 C81.73711,38.8739024 82.2172831,39.7486992 82.2396641,40.9076423 L82.2396641,41.1064228 L78.8084606,41.1064228 L78.8084606,41.0401626 C78.8084606,40.7088618 78.6871965,40.433252 78.4438545,40.2125203 C78.2009195,39.9917886 77.8310234,39.8812195 77.3333524,39.8812195 C76.8470753,39.8812195 76.4743307,39.9527642 76.2143048,40.0962602 C75.9550926,40.2397561 75.8248762,40.4165854 75.8248762,40.6263415 C75.8248762,40.9243089 76.0018892,41.1454472 76.3555082,41.2885366 C76.7087203,41.432439 77.2780104,41.5812195 78.0629714,41.7356911 C78.9797766,41.9234959 79.7342182,42.1194309 80.3254823,42.3234959 C80.9163394,42.5279675 81.4331359,42.8617073 81.875058,43.325122 C82.3169801,43.7889431 82.5436381,44.4182114 82.555032,45.2129268 C82.555032,46.5596748 82.0988675,47.5588618 81.1873524,48.2100813 C80.2758372,48.8613008 79.0574996,49.1869106 77.5323394,49.1869106 C75.7532571,49.1869106 74.3688935,48.8889431 73.3800623,48.2930081 C72.3912312,47.6966667 71.8964087,46.6426016 71.8964087,45.13 L75.3609801,45.13 C75.3609801,45.7043902 75.5103221,46.0881301 75.8081922,46.280813 C76.1072831,46.4743089 76.5711792,46.5706504 77.2006944,46.5706504 C77.6649974,46.5706504 78.048729,46.5210569 78.35311,46.4218699 C78.6566771,46.3222764 78.8084606,46.1182114 78.8084606,45.8092683 C78.8084606,45.533252 78.6399931,45.3263415 78.303058,45.1881301 C77.9661229,45.0503252 77.4159584,44.9039837 76.6537853,44.7495122 C75.7255861,44.5507317 74.9573091,44.3438211 74.349768,44.128374 C73.7418199,43.9133333 73.2115948,43.5572358 72.7586857,43.0600813 C72.3053697,42.5637398 72.0791186,41.8905691 72.0791186,41.0401626 C72.0791186,39.7930081 72.5625472,38.8739024 73.5294043,38.283252 C74.4962615,37.6926016 75.7198892,37.3974797 77.2006944,37.3974797 C78.6595255,37.3974797 79.8583307,37.6926016 80.7979238,38.283252" id="Fill-25" fill="#3BBDE8" mask="url(#mask-2)"></path>
                    <polygon id="Fill-26" fill="#3BBDE8" mask="url(#mask-2)" points="83.6321255 37.5960569 93.4943939 37.5960569 93.4943939 40.3281707 87.2952771 40.3281707 87.2952771 41.9013415 92.5995628 41.9013415 92.5995628 44.5176016 87.2952771 44.5176016 87.2952771 46.2562195 93.610368 46.2562195 93.610368 48.9883333 83.6321255 48.9883333"></polygon>
                </g>
            </g>
        </g>
    </g>
</svg>