<?xml version="1.0" encoding="UTF-8" standalone="yes"?>
<!DOCTYPE svg PUBLIC "-//W3C//DTD SVG 1.1//EN" "http://www.w3.org/Graphics/SVG/1.1/DTD/svg11.dtd">

<svg width="182" height="126" viewBox="0 0 182 126" xmlns="http://www.w3.org/2000/svg" xmlns:xlink="http://www.w3.org/1999/xlink" version="1.1" baseProfile="full">
    <g transform="scale(1,-1) translate(0,-126)">
        <path d="M 30.075153 37.281333 C 30.075153 41.056267 26.189760 42.000000 23.122344 42.000000 L 23.122344 41.433760 C 24.962794 41.433760 26.394254 40.867520 26.394254 39.546293 C 26.394254 38.791306 25.780771 37.658826 23.940322 37.658826 C 22.508861 37.658826 19.441445 38.413813 17.192007 39.168800 C 14.533580 40.112533 12.079647 40.867520 10.034704 40.867520 C 5.944816 40.867520 3.081895 38.036320 3.081895 34.827627 C 3.081895 31.996426 5.331333 31.052693 6.149310 30.675199 L 6.353805 31.052693 C 5.944816 31.430186 5.331333 31.807680 5.331333 32.940160 C 5.331333 33.695146 6.149310 35.016373 8.194254 35.016373 C 10.034703 35.016373 12.488636 34.261386 15.760546 33.317653 C 18.623468 32.562666 21.690884 31.996426 23.326839 31.807680 L 23.326839 25.956533 L 20.259423 23.502826 L 20.259423 23.314079 L 23.326838 20.860372 L 23.326838 12.744264 C 21.690883 11.800531 19.850434 11.611784 18.214479 11.611784 C 15.147063 11.611784 12.488636 12.366771 10.239198 14.631731 L 18.623467 18.406665 L 18.623467 31.430186 L 8.398748 27.277759 C 9.216726 29.731466 11.466164 31.430186 13.715603 32.562666 L 13.511108 33.128906 C 7.376277 31.618932 1.854929 26.334025 1.854929 19.916638 C 1.854929 12.366771 8.603244 6.704370 16.169536 6.704370 C 24.349311 6.704370 29.666165 12.744264 29.666165 18.972905 L 29.257176 18.972905 C 28.030210 16.519198 26.189760 14.254237 23.940322 13.121758 L 23.940322 20.860371 L 27.212232 23.314078 L 27.212232 23.502825 L 23.940322 25.956532 L 23.940322 31.807679 C 27.007738 31.807679 30.075154 33.695146 30.075154 37.281333 Z M 12.284142 16.519198 L 9.830210 15.386718 C 8.398749 17.085438 7.580772 19.350398 7.580772 22.559091 C 7.580772 23.880318 7.580772 25.390292 7.989760 26.522772 L 12.284142 28.221492 L 12.284142 16.519198 Z M 33.960548 12.178024 L 31.302121 10.290557 L 31.711110 9.913064 L 32.938076 10.856797 L 37.436953 7.081864 L 43.571784 10.856797 L 43.367290 11.234291 L 41.731335 10.290557 L 39.686391 12.178024 L 39.686391 25.012799 L 41.322346 26.145279 L 44.798750 23.502826 L 44.798750 11.989278 C 44.798750 4.816905 43.162795 3.684424 39.686391 2.551944 L 39.686391 1.985704 C 45.412233 1.796957 50.729088 3.495678 50.729088 12.744265 L 50.729088 25.201545 L 52.569537 26.522772 L 52.160548 26.900265 L 50.524593 25.767785 L 45.412234 29.731465 L 39.686389 25.767785 L 39.686389 41.245013 L 39.277400 41.245013 L 32.120097 36.715093 L 32.120097 36.337599 C 32.938074 35.960106 34.165041 35.582613 34.165041 33.506399 L 33.960546 12.178024 Z M 71.383018 14.254237 L 66.270659 10.668051 L 61.158299 14.442984 L 61.158299 16.707945 L 70.769535 22.747839 L 70.769535 22.936585 L 65.861669 29.731466 L 55.227962 24.446559 L 55.227962 11.989278 L 53.183018 10.479304 L 53.592007 10.101811 L 55.432456 11.423038 L 62.385265 6.704370 L 71.587512 13.499251 L 71.383018 14.254238 Z M 61.158299 17.462931 L 61.158299 26.711519 L 61.567288 26.900265 L 66.066164 20.294132 L 61.158299 17.462931 Z" transform="scale(1.000000,1.000000) translate(54.000000,84.000000)" fill="#000000" opacity="1.000000"></path>
        <path d="M 34.105614 44.320394 C 34.105614 44.886634 33.901120 45.452874 33.696626 46.019114 L 33.287637 46.019114 C 32.674154 44.509141 31.856176 43.754154 29.811232 43.754154 C 27.970783 43.754154 26.743817 44.697888 25.925839 45.452874 L 19.995502 39.224234 L 20.404491 38.846740 L 22.449434 40.545460 C 23.676401 39.601727 24.698873 38.846740 27.561794 38.657994 L 27.561794 22.992019 L 15.496629 42.055434 C 14.474157 43.565407 13.042696 45.641621 10.179775 45.641621 C 6.907865 45.641621 4.044944 42.999167 4.453932 38.846741 L 5.067416 38.846741 C 5.271910 39.979221 5.885393 41.300447 7.316854 41.300447 C 8.339326 41.300447 9.361798 40.356714 9.975281 39.412980 L 9.975281 33.184340 C 6.294382 33.184340 3.840449 31.674366 3.840449 28.843166 C 3.840449 27.333193 4.658427 25.068233 7.112359 24.501993 L 7.112359 24.879486 C 6.703371 25.256979 6.498876 25.634473 6.498876 26.200713 C 6.498876 27.144446 7.316854 27.899433 8.748315 27.899433 L 9.770786 27.899433 L 9.770786 19.972073 C 5.476405 19.972073 2.000000 17.707112 2.000000 13.932179 C 2.000000 10.345992 5.271910 8.647272 8.952809 8.836018 L 8.952809 9.213511 C 6.703371 9.402258 5.680899 10.345992 5.680899 11.667218 C 5.680899 13.365938 6.907865 14.120925 8.543820 14.120925 C 10.179775 14.120925 11.611236 13.177192 12.633708 12.044711 L 18.564045 18.084605 L 18.155056 18.462099 L 16.723596 16.952125 C 14.474158 18.839592 13.247191 19.405832 10.588764 19.783326 L 10.588764 38.657994 L 26.948315 12.233458 L 28.175281 12.233458 L 28.175281 38.657994 C 31.242697 38.846740 34.105619 41.111701 34.105619 44.320394 M 49.033705 19.594578 L 43.921351 16.008392 L 38.808991 19.783325 L 38.808991 22.048286 L 48.420227 28.088180 L 48.420227 28.276926 L 43.512362 35.071807 L 32.878654 29.786900 L 32.878654 17.329619 L 30.833710 15.819645 L 31.242699 15.442152 L 33.083149 16.763379 L 40.035958 12.044712 L 49.238205 18.839592 L 49.033711 19.594579 Z M 38.808986 22.803272 L 38.808986 32.051860 L 39.217974 32.240607 L 43.716851 25.634473 L 38.808986 22.803272 Z M 82.366285 32.995593 L 80.934825 32.051860 L 77.049432 35.071807 L 72.550555 31.296873 L 74.391005 29.598153 L 74.391005 15.442152 L 69.483139 18.273352 L 69.483139 29.975646 L 71.119094 30.919379 L 66.415724 35.071806 L 61.916847 31.296872 L 63.757296 29.598152 L 63.757296 16.008392 L 63.143813 15.630898 L 58.849431 18.462099 L 58.849431 29.786900 C 58.849431 32.429353 57.417971 33.184340 55.782016 34.128073 C 54.350555 35.071807 53.532577 35.638047 53.532577 36.959274 C 53.532577 38.091754 54.759544 38.657994 55.373027 39.035487 L 55.373027 39.412980 C 53.737072 39.412980 49.442690 37.903007 49.442690 34.316820 C 49.442690 32.429353 50.465161 31.674366 51.487633 30.730633 C 52.510105 29.786900 53.532577 29.031913 53.532577 27.333193 L 53.532577 16.385885 L 51.283139 14.875911 L 51.692128 14.498418 L 53.737072 16.008391 L 58.440442 12.233458 L 63.552802 15.442151 L 69.278644 12.233458 L 80.116847 18.084605 L 80.116847 30.730633 L 82.775274 32.618100 L 82.366285 32.995594 Z M 120.402241 43.376661 L 118.357298 41.677941 L 113.858421 45.452874 L 107.110106 40.922954 L 107.110106 45.075381 L 106.496623 45.075381 L 106.701118 14.498417 C 106.087635 14.498417 104.247185 14.875910 102.815724 15.253403 L 102.406736 40.734206 C 102.406736 42.621673 100.975275 45.264126 97.294376 45.264126 C 93.613477 45.264126 91.159545 42.621673 91.159545 39.979219 L 91.773028 39.979219 C 91.977522 41.111700 92.591005 42.055433 93.817972 42.055433 C 95.044938 42.055433 96.067410 41.300446 96.067410 38.846739 L 96.067410 31.485618 C 92.386511 31.296872 90.137073 29.409405 90.137073 26.955698 C 90.137073 25.445724 90.955050 23.180764 93.408983 23.180764 L 93.408983 23.558259 C 92.591005 23.935752 92.386511 24.501992 92.386511 24.879486 C 92.386511 26.011966 93.408983 26.389459 95.044938 26.389459 L 95.862915 26.389459 L 95.862915 14.687165 C 92.795500 13.743432 91.568534 11.667218 91.568534 9.402258 C 91.568534 6.193564 94.226960 3.928604 98.316848 3.928604 C 101.179769 3.928604 103.633702 4.306098 106.087634 4.872338 C 108.132578 5.249831 110.791005 5.816071 112.017972 5.816071 C 113.653927 5.816071 114.267410 5.061084 114.267410 4.117351 C 114.267410 2.796124 113.653927 2.229884 112.835949 2.041137 L 112.835949 1.663644 C 116.107859 2.229884 118.152803 4.117351 118.152803 6.948551 C 118.152803 9.779751 115.085387 11.478472 111.813477 11.478472 C 110.177522 11.478472 106.701118 10.912232 104.247185 10.534738 C 101.384264 9.968498 98.521343 9.591005 97.703365 9.591005 C 96.271904 9.591005 94.635949 10.157245 94.635949 12.044712 C 94.635949 13.554685 96.067410 14.875912 99.543814 14.875912 C 101.384264 14.875912 103.633702 14.687165 105.883140 14.120925 C 108.337073 13.554685 110.586511 12.988445 112.631455 12.988445 C 115.698870 12.988445 118.357297 13.932178 118.357297 17.895859 L 118.357297 41.111701 L 120.811230 42.999167 L 120.402241 43.376661 Z M 112.017972 31.863113 C 111.404489 31.296873 110.586511 30.730633 109.564039 30.730633 C 108.541567 30.730633 107.519095 31.296873 107.110106 31.863113 L 107.110106 40.167968 L 109.155050 41.489194 L 112.017972 39.035488 L 112.017972 31.863114 Z M 112.017972 26.200713 C 111.608983 26.578206 110.586511 27.144446 109.564039 27.144446 C 108.541567 27.144446 107.519095 26.578206 107.110106 26.200713 L 107.110106 31.108126 C 107.519095 30.730633 108.541567 30.164393 109.564039 30.164393 C 110.586511 30.164393 111.608983 30.730633 112.017972 31.108126 L 112.017972 26.200713 Z M 112.017972 17.329619 C 112.017972 15.819646 110.995500 14.309672 108.746062 14.309672 L 107.110107 14.309672 L 107.110107 25.445726 C 107.519095 25.823219 108.541567 26.389459 109.564039 26.389459 C 110.586511 26.389459 111.404489 25.823219 112.017972 25.445726 L 112.017972 17.329618 Z M 140.033702 30.730633 L 133.489881 35.071807 L 123.469657 29.786900 L 123.469657 17.518366 L 121.424713 16.008392 L 121.629207 15.630899 L 123.265162 16.763379 L 129.808983 12.233458 L 140.033702 17.895859 L 140.033702 30.730633 Z M 128.991005 18.839592 L 128.991005 32.429353 L 134.103365 29.031913 L 134.103365 15.630898 L 128.991005 18.839592 Z M 159.460667 34.694313 L 159.051678 34.694313 C 158.438195 34.316819 157.824712 33.939326 157.211229 33.939326 C 156.393251 33.939326 155.370780 34.316819 154.961791 34.883059 L 154.552802 34.883059 L 151.076397 31.296872 L 147.599993 34.883059 L 141.465161 31.108126 L 141.669656 30.730632 L 143.305611 31.674366 L 145.350555 29.598152 L 145.350555 17.707111 L 142.692128 15.819644 L 143.101116 15.442151 L 144.328083 16.385884 L 149.235948 12.610950 L 155.575274 16.574630 L 155.370779 16.952124 L 153.530330 16.008390 L 151.076397 17.895857 L 151.076397 31.108126 C 152.098869 30.164393 153.325836 29.220660 154.757296 29.220660 C 157.620217 29.031913 159.256173 31.674366 159.460667 34.694314 Z M 183.999993 16.574630 L 177.047191 12.233458 L 167.640449 25.445726 L 174.388764 35.071807 L 174.797753 35.071807 C 175.615730 34.316820 176.842696 33.561833 178.274157 33.561833 C 179.705618 33.561833 180.728090 34.316820 181.341573 35.071807 L 181.750562 35.071807 C 181.546067 31.296873 178.683146 29.031913 176.638202 29.031913 C 174.593258 29.031913 173.570786 29.975646 172.343820 30.541886 L 171.730337 29.598153 L 181.955056 15.630898 L 184.000000 16.763378 L 184.000000 16.574631 Z M 161.505611 17.518364 L 158.847184 15.630897 L 159.256173 15.253404 L 160.483139 16.197137 L 164.982016 12.422203 L 171.116847 16.197137 L 170.707858 16.574630 L 169.071903 15.630897 L 167.026959 17.518364 L 167.026959 46.585354 L 166.822465 46.585354 L 159.460668 42.055434 L 159.460668 41.677941 C 160.278645 41.300447 161.505611 41.111700 161.505611 38.846740 L 161.505611 17.518365 Z" transform="scale(1.000000,1.000000) translate(-2.000000,36.000000)" fill="#000000" opacity="1.000000"></path>
        <path d="M 30.188764 32.331949 C 30.188764 36.106883 26.303371 37.050616 23.235955 37.050616 L 23.235955 36.484376 C 25.076404 36.484376 26.507865 35.918136 26.507865 34.596910 C 26.507865 33.841923 25.894382 32.709443 24.053932 32.709443 C 22.622472 32.709443 19.555056 33.464429 17.305618 34.219416 C 14.647191 34.974403 12.193258 35.729390 10.148314 35.729390 C 6.058427 35.729390 3.195505 32.898189 3.195505 29.689496 C 3.195505 26.858295 5.444944 25.914562 6.262921 25.537069 L 6.467415 25.914562 C 5.853932 26.292055 5.240449 26.669549 5.240449 27.802029 C 5.240449 28.557016 6.058427 29.878242 8.103370 29.878242 C 9.943820 29.878242 12.397752 29.123256 15.669663 28.179522 C 18.532584 27.424536 21.600000 26.858295 23.235955 26.669549 L 23.235955 20.818402 L 20.168539 18.364695 L 20.168539 18.175948 L 23.235955 15.722242 L 23.235955 7.606134 C 21.600000 6.662401 19.759550 6.473654 18.123595 6.473654 C 15.056180 6.473654 12.397753 7.228641 10.148314 9.493601 L 18.532584 13.268534 L 18.532584 26.480802 L 8.307865 22.328375 C 9.330336 24.782082 11.579775 26.480802 13.624718 27.802029 L 13.420224 28.179523 C 7.285392 26.669549 1.764044 21.573389 1.764044 15.156001 C 1.764044 7.606134 8.512359 1.943733 16.078651 1.943733 C 24.258427 1.943733 29.575280 7.983627 29.575280 14.212268 L 29.166291 14.212268 C 27.939325 11.758561 26.098876 9.493601 23.849438 8.361121 L 23.849438 16.099735 L 27.121348 18.553441 L 27.121348 18.742188 L 24.053933 21.195895 L 24.053933 26.858295 C 27.121348 26.858295 30.188764 28.745762 30.188764 32.331949 M 12.397753 11.569814 L 9.943821 10.437334 C 8.512360 12.136054 7.694382 14.401014 7.694382 17.609708 C 7.694382 18.930935 7.898877 20.440908 8.307865 21.573388 L 12.602247 23.272108 L 12.397753 11.569814 Z M 37.346067 34.219416 L 37.141573 34.219416 L 33.051685 31.010722 L 33.051685 30.821976 L 36.528090 27.235789 L 36.937079 27.235789 L 41.026966 30.444483 L 41.026966 30.633229 L 37.346068 34.219416 Z M 43.480899 6.284907 L 41.844944 5.341173 L 39.800000 7.228640 L 39.800000 20.252161 L 41.844944 21.573388 L 41.435955 21.950882 L 40.004494 20.818401 L 36.323596 24.782082 L 30.393258 21.007148 L 30.802247 20.440908 L 32.233708 21.384641 L 34.074157 19.308428 L 34.074157 7.039893 L 31.415730 5.152426 L 31.620225 4.774933 L 33.051685 5.718666 L 37.550562 1.943733 L 43.685393 5.718666 L 43.480899 6.284906 Z M 77.631462 6.473653 L 76.200002 5.529920 L 73.950563 7.417387 L 73.950563 20.252161 L 75.995507 21.762135 L 75.586518 22.139628 L 73.950563 20.818402 L 69.247193 24.782082 L 63.112361 20.818402 L 58.408990 24.782082 L 52.683146 20.818402 L 49.002247 24.782082 L 43.071910 21.007148 L 43.276404 20.440908 L 44.707865 21.384642 L 46.752809 19.308428 L 46.752809 7.039894 L 45.116854 5.529920 L 49.820224 1.943733 L 54.319101 5.718667 L 52.478652 7.417387 L 52.478652 20.252161 L 54.319101 21.384642 L 57.386517 18.742188 L 57.386517 7.417387 L 55.750562 5.907413 L 60.453932 2.321227 L 64.952809 6.096160 L 63.112359 7.794880 L 63.112359 20.252161 L 64.748315 21.195895 L 68.020225 18.553441 L 68.020225 7.228640 L 66.588764 5.907413 L 71.292135 1.943733 L 77.631460 5.907413 L 77.631460 6.473654 Z M 95.422473 9.304854 L 90.310114 5.718667 L 85.197754 9.493600 L 85.197754 11.758561 L 94.808990 17.798455 L 94.808990 17.987201 L 89.901124 24.782082 L 79.267417 19.497175 L 79.267417 6.662400 L 86.424720 1.943733 L 95.626967 8.738613 L 95.422473 9.304853 Z M 85.197754 12.513547 L 85.197754 21.762135 L 85.606743 21.950882 L 90.105619 15.344748 L 85.197754 12.513548 Z M 114.031463 14.212267 L 110.146069 17.043468 C 112.804496 19.119681 113.826968 21.950881 113.826968 23.838348 L 113.826968 24.970828 L 113.417979 24.970828 C 113.008991 24.027095 112.191013 23.083361 110.555058 23.083361 C 108.919103 23.083361 107.896631 23.838348 106.874159 24.970828 L 97.671910 20.252161 L 97.671910 13.457281 L 101.148315 11.003574 C 97.671910 8.172374 97.058427 6.284907 97.058427 4.774934 C 97.058427 2.887467 98.080899 1.566240 99.716854 1.000000 L 99.921348 1.377493 C 99.512360 1.754987 99.103371 1.943733 99.103371 2.887467 C 99.103371 3.453707 99.921348 4.397440 101.557303 4.397440 C 103.602247 4.397440 104.829214 3.076214 105.442697 2.509974 L 114.235956 7.417387 L 114.235956 14.212268 L 114.031461 14.212268 Z M 111.782024 19.874668 C 110.350564 17.609708 107.283148 15.344747 105.442699 14.212267 L 103.193260 15.910987 L 103.193260 22.517121 C 104.011238 20.629654 106.260676 19.119681 108.510114 19.119681 C 109.941575 19.119681 110.759552 19.308428 111.782024 19.874668 Z M 108.305620 4.774933 C 107.283148 6.851147 104.829215 8.361120 102.375283 8.361120 C 101.761799 8.361120 100.125844 8.361120 98.489889 7.417387 C 99.512361 8.927360 102.170788 11.569814 105.647193 13.457281 L 108.101125 11.569814 L 108.305620 4.774933 Z" transform="scale(1.000000,1.000000) translate(33.000000,-1.000000)" fill="#000000" opacity="1.000000"></path>
    </g>
</svg>