<?xml version="1.0" encoding="utf-8"?>
<!-- Generator: Adobe Illustrator 22.0.1, SVG Export Plug-In . SVG Version: 6.00 Build 0)  -->
<svg version="1.1" id="Layer_1" xmlns="http://www.w3.org/2000/svg" xmlns:xlink="http://www.w3.org/1999/xlink" x="0px" y="0px"
	 viewBox="0 0 256 256" style="enable-background:new 0 0 256 256;" xml:space="preserve">
<style type="text/css">
	.st0{fill:#F0A216;}
	.st1{fill:#CBD0E0;}
	.st2{fill:#09367B;}
</style>
<g>
	<path class="st0" d="M43,129.3c0-44.2,34.3-80.6,78.2-85.6v-5.3c-46.9,4.9-83.6,43.8-83.6,90.9s36.7,85.9,83.6,90.9v-5.3
		C77.2,209.9,43,173.4,43,129.3z"/>
	<path class="st1" d="M141.4,10v5.3c60,5,107.2,54.2,107.2,114c0,59.8-47.2,108.9-107.2,114v5.3c62.9-5,112.6-56.6,112.6-119.2
		S204.4,15.1,141.4,10z"/>
	<path class="st0" d="M227.8,128c0-48.6-37.9-88.7-86.3-93.6c-3.4-0.3-6.8-0.5-10.2-0.5v4.1v5.3V52c3.5,0,6.9,0.2,10.2,0.7
		c38.2,4.9,67.7,36.8,67.7,75.3s-29.6,70.4-67.7,75.3c-3.3,0.4-6.8,0.7-10.2,0.7v11.4v5.3v1.5c3.5,0,6.9-0.2,10.2-0.5
		C189.9,216.7,227.8,176.6,227.8,128z"/>
	<path class="st2" d="M131.2,248.9v-5.3v-7.9c-3.4,0-6.7-0.2-10-0.5c-56.3-5-100.5-51.2-100.5-107.4S64.9,25.6,121.2,20.6
		c3.3-0.3,6.6-0.5,10-0.5v-5.3V9.6V2c-3.4,0-6.7,0.2-10,0.4C54.6,7.4,2,61.8,2,128s52.6,120.6,119.2,125.6c3.3,0.2,6.6,0.4,10,0.4
		V248.9z"/>
	<path class="st2" d="M189.8,128c0-28.2-20.9-51.6-48.4-56.3c-3.3-0.6-6.7-0.9-10.2-0.9c-3.4,0-6.8,0.3-10,0.8
		C93.6,76.3,72.6,99.8,72.6,128s21,51.7,48.6,56.3c3.3,0.5,6.6,0.8,10,0.8c3.5,0,6.9-0.3,10.2-0.9
		C168.9,179.6,189.8,156.2,189.8,128z M131.3,174.9l-10.1-17L85.4,97.3h13.1l22.8,38.5l10.1,17l10.1-17.2L164,97.3h13l-35.6,60.4
		L131.3,174.9z"/>
</g>
</svg>
